<svg xmlns="http://www.w3.org/2000/svg" width="1320" height="470" viewBox="0 0 1320 470">
<rect width="100%" height="100%" fill="#FFFFFF"/>
<style>text{font-family:Arial,sans-serif;fill:#172033}.title{font-size:20px;font-weight:700}.label{font-size:12px}.small{font-size:11px;fill:#4B5563}.grid{stroke:#E5E7EB;stroke-width:1}.axis{stroke:#6B7280;stroke-width:1.2}</style>
<text x="20" y="28" class="title">Error vs distance from trainval length distribution — test_fabs</text>
<line x1="62" y1="106.0" x2="392" y2="106.0" class="grid"/>
<text x="54" y="110.0" text-anchor="end" class="small">4.5</text>
<line x1="62" y1="162.0" x2="392" y2="162.0" class="grid"/>
<text x="54" y="166.0" text-anchor="end" class="small">3.6</text>
<line x1="62" y1="218.0" x2="392" y2="218.0" class="grid"/>
<text x="54" y="222.0" text-anchor="end" class="small">2.7</text>
<line x1="62" y1="274.0" x2="392" y2="274.0" class="grid"/>
<text x="54" y="278.0" text-anchor="end" class="small">1.8</text>
<line x1="62" y1="330.0" x2="392" y2="330.0" class="grid"/>
<text x="54" y="334.0" text-anchor="end" class="small">0.9</text>
<line x1="62" y1="386.0" x2="392" y2="386.0" class="grid"/>
<text x="54" y="390.0" text-anchor="end" class="small">0.0</text>
<line x1="62" y1="106" x2="62" y2="386" class="axis"/>
<line x1="62" y1="386" x2="392" y2="386" class="axis"/>
<text x="62.0" y="404" text-anchor="middle" class="small">0.00</text>
<text x="144.5" y="404" text-anchor="middle" class="small">0.01</text>
<text x="227.0" y="404" text-anchor="middle" class="small">0.02</text>
<text x="309.5" y="404" text-anchor="middle" class="small">0.03</text>
<text x="392.0" y="404" text-anchor="middle" class="small">0.04</text>
<circle cx="367.56" cy="248.12" r="3.3" fill="#D97706" fill-opacity="0.55"/>
<circle cx="112.93" cy="341.32" r="3.3" fill="#D97706" fill-opacity="0.55"/>
<circle cx="112.93" cy="383.02" r="3.3" fill="#D97706" fill-opacity="0.55"/>
<circle cx="112.93" cy="175.60" r="3.3" fill="#D97706" fill-opacity="0.55"/>
<circle cx="87.46" cy="181.32" r="3.3" fill="#D97706" fill-opacity="0.55"/>
<circle cx="87.46" cy="290.27" r="3.3" fill="#D97706" fill-opacity="0.55"/>
<circle cx="112.93" cy="351.40" r="3.3" fill="#D97706" fill-opacity="0.55"/>
<circle cx="87.46" cy="354.94" r="3.3" fill="#D97706" fill-opacity="0.55"/>
<circle cx="62.00" cy="207.04" r="3.3" fill="#D97706" fill-opacity="0.55"/>
<circle cx="62.00" cy="242.82" r="3.3" fill="#D97706" fill-opacity="0.55"/>
<circle cx="112.93" cy="249.44" r="3.3" fill="#D97706" fill-opacity="0.55"/>
<circle cx="138.39" cy="277.52" r="3.3" fill="#D97706" fill-opacity="0.55"/>
<circle cx="163.85" cy="234.82" r="3.3" fill="#D97706" fill-opacity="0.55"/>
<circle cx="342.09" cy="213.77" r="3.3" fill="#D97706" fill-opacity="0.55"/>
<circle cx="87.46" cy="341.92" r="3.3" fill="#D97706" fill-opacity="0.55"/>
<circle cx="112.93" cy="312.95" r="3.3" fill="#D97706" fill-opacity="0.55"/>
<circle cx="62.00" cy="285.31" r="3.3" fill="#D97706" fill-opacity="0.55"/>
<circle cx="62.00" cy="372.99" r="3.3" fill="#D97706" fill-opacity="0.55"/>
<circle cx="62.00" cy="382.67" r="3.3" fill="#D97706" fill-opacity="0.55"/>
<circle cx="112.93" cy="242.47" r="3.3" fill="#D97706" fill-opacity="0.55"/>
<circle cx="87.46" cy="288.80" r="3.3" fill="#D97706" fill-opacity="0.55"/>
<circle cx="112.93" cy="288.55" r="3.3" fill="#D97706" fill-opacity="0.55"/>
<circle cx="163.85" cy="365.96" r="3.3" fill="#D97706" fill-opacity="0.55"/>
<circle cx="189.31" cy="334.66" r="3.3" fill="#D97706" fill-opacity="0.55"/>
<circle cx="189.31" cy="250.49" r="3.3" fill="#D97706" fill-opacity="0.55"/>
<circle cx="163.85" cy="321.08" r="3.3" fill="#D97706" fill-opacity="0.55"/>
<circle cx="214.78" cy="364.05" r="3.3" fill="#D97706" fill-opacity="0.55"/>
<circle cx="62.00" cy="371.30" r="3.3" fill="#D97706" fill-opacity="0.55"/>
<circle cx="112.93" cy="349.67" r="3.3" fill="#D97706" fill-opacity="0.55"/>
<circle cx="112.93" cy="312.46" r="3.3" fill="#D97706" fill-opacity="0.55"/>
<circle cx="87.46" cy="262.12" r="3.3" fill="#D97706" fill-opacity="0.55"/>
<circle cx="189.31" cy="286.17" r="3.3" fill="#D97706" fill-opacity="0.55"/>
<circle cx="112.93" cy="263.66" r="3.3" fill="#D97706" fill-opacity="0.55"/>
<circle cx="214.78" cy="340.55" r="3.3" fill="#D97706" fill-opacity="0.55"/>
<circle cx="87.46" cy="221.30" r="3.3" fill="#D97706" fill-opacity="0.55"/>
<circle cx="112.93" cy="313.32" r="3.3" fill="#D97706" fill-opacity="0.55"/>
<circle cx="62.00" cy="356.68" r="3.3" fill="#D97706" fill-opacity="0.55"/>
<circle cx="189.31" cy="312.37" r="3.3" fill="#D97706" fill-opacity="0.55"/>
<circle cx="240.24" cy="321.22" r="3.3" fill="#D97706" fill-opacity="0.55"/>
<circle cx="163.85" cy="206.54" r="3.3" fill="#D97706" fill-opacity="0.55"/>
<circle cx="87.46" cy="373.73" r="3.3" fill="#D97706" fill-opacity="0.55"/>
<circle cx="62.00" cy="375.83" r="3.3" fill="#D97706" fill-opacity="0.55"/>
<circle cx="112.93" cy="345.28" r="3.3" fill="#D97706" fill-opacity="0.55"/>
<circle cx="87.46" cy="131.45" r="3.3" fill="#D97706" fill-opacity="0.55"/>
<circle cx="112.93" cy="237.26" r="3.3" fill="#D97706" fill-opacity="0.55"/>
<circle cx="87.46" cy="362.87" r="3.3" fill="#D97706" fill-opacity="0.55"/>
<circle cx="62.00" cy="326.49" r="3.3" fill="#D97706" fill-opacity="0.55"/>
<circle cx="189.31" cy="252.93" r="3.3" fill="#D97706" fill-opacity="0.55"/>
<circle cx="62.00" cy="373.15" r="3.3" fill="#D97706" fill-opacity="0.55"/>
<circle cx="62.00" cy="159.27" r="3.3" fill="#D97706" fill-opacity="0.55"/>
<circle cx="112.93" cy="186.40" r="3.3" fill="#D97706" fill-opacity="0.55"/>
<circle cx="87.46" cy="284.68" r="3.3" fill="#D97706" fill-opacity="0.55"/>
<circle cx="62.00" cy="252.11" r="3.3" fill="#D97706" fill-opacity="0.55"/>
<circle cx="62.00" cy="321.21" r="3.3" fill="#D97706" fill-opacity="0.55"/>
<circle cx="62.00" cy="318.26" r="3.3" fill="#D97706" fill-opacity="0.55"/>
<circle cx="62.00" cy="321.19" r="3.3" fill="#D97706" fill-opacity="0.55"/>
<circle cx="112.93" cy="373.33" r="3.3" fill="#D97706" fill-opacity="0.55"/>
<circle cx="112.93" cy="309.70" r="3.3" fill="#D97706" fill-opacity="0.55"/>
<circle cx="163.85" cy="375.15" r="3.3" fill="#D97706" fill-opacity="0.55"/>
<circle cx="87.46" cy="347.88" r="3.3" fill="#D97706" fill-opacity="0.55"/>
<circle cx="62.00" cy="320.20" r="3.3" fill="#D97706" fill-opacity="0.55"/>
<circle cx="62.00" cy="354.35" r="3.3" fill="#D97706" fill-opacity="0.55"/>
<circle cx="62.00" cy="360.59" r="3.3" fill="#D97706" fill-opacity="0.55"/>
<circle cx="62.00" cy="244.23" r="3.3" fill="#D97706" fill-opacity="0.55"/>
<circle cx="87.46" cy="337.23" r="3.3" fill="#D97706" fill-opacity="0.55"/>
<circle cx="214.78" cy="247.09" r="3.3" fill="#D97706" fill-opacity="0.55"/>
<circle cx="240.24" cy="225.52" r="3.3" fill="#D97706" fill-opacity="0.55"/>
<circle cx="138.39" cy="317.51" r="3.3" fill="#D97706" fill-opacity="0.55"/>
<circle cx="189.31" cy="359.20" r="3.3" fill="#D97706" fill-opacity="0.55"/>
<circle cx="87.46" cy="303.44" r="3.3" fill="#D97706" fill-opacity="0.55"/>
<path d="M 62.00 323.85 L 87.46 305.24 L 112.93 325.09 L 112.93 311.08 L 202.05 299.27" fill="none" stroke="#DC2626" stroke-width="2.3"/>
<circle cx="62.00" cy="323.85" r="4" fill="#DC2626"/>
<circle cx="87.46" cy="305.24" r="4" fill="#DC2626"/>
<circle cx="112.93" cy="325.09" r="4" fill="#DC2626"/>
<circle cx="112.93" cy="311.08" r="4" fill="#DC2626"/>
<circle cx="202.05" cy="299.27" r="4" fill="#DC2626"/>
<text x="62" y="59" class="label" font-weight="700">Receptor length</text>
<text x="62" y="79" class="small">Spearman ρ=0.167; permutation p=0.174</text>
<text x="62" y="95" class="small">bootstrap 95% CI [-0.068, 0.396]</text>
<text x="227.0" y="425" text-anchor="middle" class="label">10-NN distance / trainval IQR</text>
<text x="16" y="246.0" text-anchor="middle" class="label" transform="rotate(-90 16 246.0)">Absolute error (kcal/mol)</text>
<line x1="492" y1="106.0" x2="822" y2="106.0" class="grid"/>
<text x="484" y="110.0" text-anchor="end" class="small">4.5</text>
<line x1="492" y1="162.0" x2="822" y2="162.0" class="grid"/>
<text x="484" y="166.0" text-anchor="end" class="small">3.6</text>
<line x1="492" y1="218.0" x2="822" y2="218.0" class="grid"/>
<text x="484" y="222.0" text-anchor="end" class="small">2.7</text>
<line x1="492" y1="274.0" x2="822" y2="274.0" class="grid"/>
<text x="484" y="278.0" text-anchor="end" class="small">1.8</text>
<line x1="492" y1="330.0" x2="822" y2="330.0" class="grid"/>
<text x="484" y="334.0" text-anchor="end" class="small">0.9</text>
<line x1="492" y1="386.0" x2="822" y2="386.0" class="grid"/>
<text x="484" y="390.0" text-anchor="end" class="small">0.0</text>
<line x1="492" y1="106" x2="492" y2="386" class="axis"/>
<line x1="492" y1="386" x2="822" y2="386" class="axis"/>
<text x="492.0" y="404" text-anchor="middle" class="small">0.00</text>
<text x="574.5" y="404" text-anchor="middle" class="small">1.89</text>
<text x="657.0" y="404" text-anchor="middle" class="small">3.79</text>
<text x="739.5" y="404" text-anchor="middle" class="small">5.68</text>
<text x="822.0" y="404" text-anchor="middle" class="small">7.57</text>
<circle cx="619.22" cy="248.12" r="3.3" fill="#D97706" fill-opacity="0.55"/>
<circle cx="492.34" cy="341.32" r="3.3" fill="#D97706" fill-opacity="0.55"/>
<circle cx="492.34" cy="383.02" r="3.3" fill="#D97706" fill-opacity="0.55"/>
<circle cx="792.19" cy="175.60" r="3.3" fill="#D97706" fill-opacity="0.55"/>
<circle cx="797.56" cy="181.32" r="3.3" fill="#D97706" fill-opacity="0.55"/>
<circle cx="494.85" cy="290.27" r="3.3" fill="#D97706" fill-opacity="0.55"/>
<circle cx="495.02" cy="351.40" r="3.3" fill="#D97706" fill-opacity="0.55"/>
<circle cx="492.34" cy="354.94" r="3.3" fill="#D97706" fill-opacity="0.55"/>
<circle cx="492.00" cy="207.04" r="3.3" fill="#D97706" fill-opacity="0.55"/>
<circle cx="498.54" cy="242.82" r="3.3" fill="#D97706" fill-opacity="0.55"/>
<circle cx="492.34" cy="249.44" r="3.3" fill="#D97706" fill-opacity="0.55"/>
<circle cx="492.34" cy="277.52" r="3.3" fill="#D97706" fill-opacity="0.55"/>
<circle cx="492.00" cy="234.82" r="3.3" fill="#D97706" fill-opacity="0.55"/>
<circle cx="492.34" cy="213.77" r="3.3" fill="#D97706" fill-opacity="0.55"/>
<circle cx="559.38" cy="341.92" r="3.3" fill="#D97706" fill-opacity="0.55"/>
<circle cx="538.60" cy="312.95" r="3.3" fill="#D97706" fill-opacity="0.55"/>
<circle cx="492.34" cy="285.31" r="3.3" fill="#D97706" fill-opacity="0.55"/>
<circle cx="492.34" cy="372.99" r="3.3" fill="#D97706" fill-opacity="0.55"/>
<circle cx="492.34" cy="382.67" r="3.3" fill="#D97706" fill-opacity="0.55"/>
<circle cx="496.02" cy="242.47" r="3.3" fill="#D97706" fill-opacity="0.55"/>
<circle cx="500.21" cy="288.80" r="3.3" fill="#D97706" fill-opacity="0.55"/>
<circle cx="500.21" cy="288.55" r="3.3" fill="#D97706" fill-opacity="0.55"/>
<circle cx="501.05" cy="365.96" r="3.3" fill="#D97706" fill-opacity="0.55"/>
<circle cx="494.51" cy="334.66" r="3.3" fill="#D97706" fill-opacity="0.55"/>
<circle cx="494.18" cy="250.49" r="3.3" fill="#D97706" fill-opacity="0.55"/>
<circle cx="492.67" cy="321.08" r="3.3" fill="#D97706" fill-opacity="0.55"/>
<circle cx="492.34" cy="364.05" r="3.3" fill="#D97706" fill-opacity="0.55"/>
<circle cx="492.00" cy="371.30" r="3.3" fill="#D97706" fill-opacity="0.55"/>
<circle cx="500.55" cy="349.67" r="3.3" fill="#D97706" fill-opacity="0.55"/>
<circle cx="492.34" cy="312.46" r="3.3" fill="#D97706" fill-opacity="0.55"/>
<circle cx="492.34" cy="262.12" r="3.3" fill="#D97706" fill-opacity="0.55"/>
<circle cx="492.00" cy="286.17" r="3.3" fill="#D97706" fill-opacity="0.55"/>
<circle cx="492.00" cy="263.66" r="3.3" fill="#D97706" fill-opacity="0.55"/>
<circle cx="492.00" cy="340.55" r="3.3" fill="#D97706" fill-opacity="0.55"/>
<circle cx="535.58" cy="221.30" r="3.3" fill="#D97706" fill-opacity="0.55"/>
<circle cx="619.22" cy="313.32" r="3.3" fill="#D97706" fill-opacity="0.55"/>
<circle cx="498.54" cy="356.68" r="3.3" fill="#D97706" fill-opacity="0.55"/>
<circle cx="492.00" cy="312.37" r="3.3" fill="#D97706" fill-opacity="0.55"/>
<circle cx="492.34" cy="321.22" r="3.3" fill="#D97706" fill-opacity="0.55"/>
<circle cx="492.00" cy="206.54" r="3.3" fill="#D97706" fill-opacity="0.55"/>
<circle cx="492.17" cy="373.73" r="3.3" fill="#D97706" fill-opacity="0.55"/>
<circle cx="492.34" cy="375.83" r="3.3" fill="#D97706" fill-opacity="0.55"/>
<circle cx="492.00" cy="345.28" r="3.3" fill="#D97706" fill-opacity="0.55"/>
<circle cx="526.19" cy="131.45" r="3.3" fill="#D97706" fill-opacity="0.55"/>
<circle cx="492.34" cy="237.26" r="3.3" fill="#D97706" fill-opacity="0.55"/>
<circle cx="527.87" cy="362.87" r="3.3" fill="#D97706" fill-opacity="0.55"/>
<circle cx="527.87" cy="326.49" r="3.3" fill="#D97706" fill-opacity="0.55"/>
<circle cx="492.00" cy="252.93" r="3.3" fill="#D97706" fill-opacity="0.55"/>
<circle cx="496.02" cy="373.15" r="3.3" fill="#D97706" fill-opacity="0.55"/>
<circle cx="492.34" cy="159.27" r="3.3" fill="#D97706" fill-opacity="0.55"/>
<circle cx="492.34" cy="186.40" r="3.3" fill="#D97706" fill-opacity="0.55"/>
<circle cx="492.34" cy="284.68" r="3.3" fill="#D97706" fill-opacity="0.55"/>
<circle cx="492.34" cy="252.11" r="3.3" fill="#D97706" fill-opacity="0.55"/>
<circle cx="492.34" cy="321.21" r="3.3" fill="#D97706" fill-opacity="0.55"/>
<circle cx="492.34" cy="318.26" r="3.3" fill="#D97706" fill-opacity="0.55"/>
<circle cx="492.34" cy="321.19" r="3.3" fill="#D97706" fill-opacity="0.55"/>
<circle cx="492.34" cy="373.33" r="3.3" fill="#D97706" fill-opacity="0.55"/>
<circle cx="492.34" cy="309.70" r="3.3" fill="#D97706" fill-opacity="0.55"/>
<circle cx="492.34" cy="375.15" r="3.3" fill="#D97706" fill-opacity="0.55"/>
<circle cx="492.34" cy="347.88" r="3.3" fill="#D97706" fill-opacity="0.55"/>
<circle cx="508.59" cy="320.20" r="3.3" fill="#D97706" fill-opacity="0.55"/>
<circle cx="497.70" cy="354.35" r="3.3" fill="#D97706" fill-opacity="0.55"/>
<circle cx="503.40" cy="360.59" r="3.3" fill="#D97706" fill-opacity="0.55"/>
<circle cx="505.58" cy="244.23" r="3.3" fill="#D97706" fill-opacity="0.55"/>
<circle cx="559.38" cy="337.23" r="3.3" fill="#D97706" fill-opacity="0.55"/>
<circle cx="492.00" cy="247.09" r="3.3" fill="#D97706" fill-opacity="0.55"/>
<circle cx="492.00" cy="225.52" r="3.3" fill="#D97706" fill-opacity="0.55"/>
<circle cx="492.00" cy="317.51" r="3.3" fill="#D97706" fill-opacity="0.55"/>
<circle cx="492.34" cy="359.20" r="3.3" fill="#D97706" fill-opacity="0.55"/>
<circle cx="540.27" cy="303.44" r="3.3" fill="#D97706" fill-opacity="0.55"/>
<path d="M 492.00 274.92 L 492.34 331.27 L 492.34 319.67 L 498.12 342.17 L 539.43 308.19" fill="none" stroke="#DC2626" stroke-width="2.3"/>
<circle cx="492.00" cy="274.92" r="4" fill="#DC2626"/>
<circle cx="492.34" cy="331.27" r="4" fill="#DC2626"/>
<circle cx="492.34" cy="319.67" r="4" fill="#DC2626"/>
<circle cx="498.12" cy="342.17" r="4" fill="#DC2626"/>
<circle cx="539.43" cy="308.19" r="4" fill="#DC2626"/>
<text x="492" y="59" class="label" font-weight="700">Ligand length</text>
<text x="492" y="79" class="small">Spearman ρ=0.003; permutation p=0.983</text>
<text x="492" y="95" class="small">bootstrap 95% CI [-0.234, 0.237]</text>
<text x="657.0" y="425" text-anchor="middle" class="label">10-NN distance / trainval IQR</text>
<line x1="922" y1="106.0" x2="1252" y2="106.0" class="grid"/>
<text x="914" y="110.0" text-anchor="end" class="small">4.5</text>
<line x1="922" y1="162.0" x2="1252" y2="162.0" class="grid"/>
<text x="914" y="166.0" text-anchor="end" class="small">3.6</text>
<line x1="922" y1="218.0" x2="1252" y2="218.0" class="grid"/>
<text x="914" y="222.0" text-anchor="end" class="small">2.7</text>
<line x1="922" y1="274.0" x2="1252" y2="274.0" class="grid"/>
<text x="914" y="278.0" text-anchor="end" class="small">1.8</text>
<line x1="922" y1="330.0" x2="1252" y2="330.0" class="grid"/>
<text x="914" y="334.0" text-anchor="end" class="small">0.9</text>
<line x1="922" y1="386.0" x2="1252" y2="386.0" class="grid"/>
<text x="914" y="390.0" text-anchor="end" class="small">0.0</text>
<line x1="922" y1="106" x2="922" y2="386" class="axis"/>
<line x1="922" y1="386" x2="1252" y2="386" class="axis"/>
<text x="922.0" y="404" text-anchor="middle" class="small">0.00</text>
<text x="1004.5" y="404" text-anchor="middle" class="small">0.38</text>
<text x="1087.0" y="404" text-anchor="middle" class="small">0.76</text>
<text x="1169.5" y="404" text-anchor="middle" class="small">1.15</text>
<text x="1252.0" y="404" text-anchor="middle" class="small">1.53</text>
<circle cx="1131.80" cy="248.12" r="3.3" fill="#D97706" fill-opacity="0.55"/>
<circle cx="922.73" cy="341.32" r="3.3" fill="#D97706" fill-opacity="0.55"/>
<circle cx="922.73" cy="383.02" r="3.3" fill="#D97706" fill-opacity="0.55"/>
<circle cx="1227.56" cy="175.60" r="3.3" fill="#D97706" fill-opacity="0.55"/>
<circle cx="1161.40" cy="181.32" r="3.3" fill="#D97706" fill-opacity="0.55"/>
<circle cx="922.73" cy="290.27" r="3.3" fill="#D97706" fill-opacity="0.55"/>
<circle cx="922.73" cy="351.40" r="3.3" fill="#D97706" fill-opacity="0.55"/>
<circle cx="922.73" cy="354.94" r="3.3" fill="#D97706" fill-opacity="0.55"/>
<circle cx="924.19" cy="207.04" r="3.3" fill="#D97706" fill-opacity="0.55"/>
<circle cx="924.92" cy="242.82" r="3.3" fill="#D97706" fill-opacity="0.55"/>
<circle cx="923.46" cy="249.44" r="3.3" fill="#D97706" fill-opacity="0.55"/>
<circle cx="923.46" cy="277.52" r="3.3" fill="#D97706" fill-opacity="0.55"/>
<circle cx="923.46" cy="234.82" r="3.3" fill="#D97706" fill-opacity="0.55"/>
<circle cx="922.73" cy="213.77" r="3.3" fill="#D97706" fill-opacity="0.55"/>
<circle cx="931.50" cy="341.92" r="3.3" fill="#D97706" fill-opacity="0.55"/>
<circle cx="927.48" cy="312.95" r="3.3" fill="#D97706" fill-opacity="0.55"/>
<circle cx="922.73" cy="285.31" r="3.3" fill="#D97706" fill-opacity="0.55"/>
<circle cx="922.73" cy="372.99" r="3.3" fill="#D97706" fill-opacity="0.55"/>
<circle cx="922.73" cy="382.67" r="3.3" fill="#D97706" fill-opacity="0.55"/>
<circle cx="931.87" cy="242.47" r="3.3" fill="#D97706" fill-opacity="0.55"/>
<circle cx="928.94" cy="288.80" r="3.3" fill="#D97706" fill-opacity="0.55"/>
<circle cx="927.85" cy="288.55" r="3.3" fill="#D97706" fill-opacity="0.55"/>
<circle cx="930.04" cy="365.96" r="3.3" fill="#D97706" fill-opacity="0.55"/>
<circle cx="924.92" cy="334.66" r="3.3" fill="#D97706" fill-opacity="0.55"/>
<circle cx="925.29" cy="250.49" r="3.3" fill="#D97706" fill-opacity="0.55"/>
<circle cx="925.65" cy="321.08" r="3.3" fill="#D97706" fill-opacity="0.55"/>
<circle cx="923.46" cy="364.05" r="3.3" fill="#D97706" fill-opacity="0.55"/>
<circle cx="923.10" cy="371.30" r="3.3" fill="#D97706" fill-opacity="0.55"/>
<circle cx="923.10" cy="349.67" r="3.3" fill="#D97706" fill-opacity="0.55"/>
<circle cx="922.73" cy="312.46" r="3.3" fill="#D97706" fill-opacity="0.55"/>
<circle cx="922.00" cy="262.12" r="3.3" fill="#D97706" fill-opacity="0.55"/>
<circle cx="922.73" cy="286.17" r="3.3" fill="#D97706" fill-opacity="0.55"/>
<circle cx="922.73" cy="263.66" r="3.3" fill="#D97706" fill-opacity="0.55"/>
<circle cx="922.73" cy="340.55" r="3.3" fill="#D97706" fill-opacity="0.55"/>
<circle cx="928.21" cy="221.30" r="3.3" fill="#D97706" fill-opacity="0.55"/>
<circle cx="1127.41" cy="313.32" r="3.3" fill="#D97706" fill-opacity="0.55"/>
<circle cx="924.56" cy="356.68" r="3.3" fill="#D97706" fill-opacity="0.55"/>
<circle cx="922.73" cy="312.37" r="3.3" fill="#D97706" fill-opacity="0.55"/>
<circle cx="922.73" cy="321.22" r="3.3" fill="#D97706" fill-opacity="0.55"/>
<circle cx="922.73" cy="206.54" r="3.3" fill="#D97706" fill-opacity="0.55"/>
<circle cx="922.73" cy="373.73" r="3.3" fill="#D97706" fill-opacity="0.55"/>
<circle cx="923.83" cy="375.83" r="3.3" fill="#D97706" fill-opacity="0.55"/>
<circle cx="923.46" cy="345.28" r="3.3" fill="#D97706" fill-opacity="0.55"/>
<circle cx="928.58" cy="131.45" r="3.3" fill="#D97706" fill-opacity="0.55"/>
<circle cx="922.37" cy="237.26" r="3.3" fill="#D97706" fill-opacity="0.55"/>
<circle cx="927.12" cy="362.87" r="3.3" fill="#D97706" fill-opacity="0.55"/>
<circle cx="930.04" cy="326.49" r="3.3" fill="#D97706" fill-opacity="0.55"/>
<circle cx="923.10" cy="252.93" r="3.3" fill="#D97706" fill-opacity="0.55"/>
<circle cx="922.73" cy="373.15" r="3.3" fill="#D97706" fill-opacity="0.55"/>
<circle cx="922.73" cy="159.27" r="3.3" fill="#D97706" fill-opacity="0.55"/>
<circle cx="922.37" cy="186.40" r="3.3" fill="#D97706" fill-opacity="0.55"/>
<circle cx="922.73" cy="284.68" r="3.3" fill="#D97706" fill-opacity="0.55"/>
<circle cx="922.73" cy="252.11" r="3.3" fill="#D97706" fill-opacity="0.55"/>
<circle cx="922.73" cy="321.21" r="3.3" fill="#D97706" fill-opacity="0.55"/>
<circle cx="922.73" cy="318.26" r="3.3" fill="#D97706" fill-opacity="0.55"/>
<circle cx="922.73" cy="321.19" r="3.3" fill="#D97706" fill-opacity="0.55"/>
<circle cx="922.73" cy="373.33" r="3.3" fill="#D97706" fill-opacity="0.55"/>
<circle cx="922.73" cy="309.70" r="3.3" fill="#D97706" fill-opacity="0.55"/>
<circle cx="922.73" cy="375.15" r="3.3" fill="#D97706" fill-opacity="0.55"/>
<circle cx="923.46" cy="347.88" r="3.3" fill="#D97706" fill-opacity="0.55"/>
<circle cx="930.04" cy="320.20" r="3.3" fill="#D97706" fill-opacity="0.55"/>
<circle cx="925.29" cy="354.35" r="3.3" fill="#D97706" fill-opacity="0.55"/>
<circle cx="929.31" cy="360.59" r="3.3" fill="#D97706" fill-opacity="0.55"/>
<circle cx="930.77" cy="244.23" r="3.3" fill="#D97706" fill-opacity="0.55"/>
<circle cx="931.50" cy="337.23" r="3.3" fill="#D97706" fill-opacity="0.55"/>
<circle cx="922.73" cy="247.09" r="3.3" fill="#D97706" fill-opacity="0.55"/>
<circle cx="923.10" cy="225.52" r="3.3" fill="#D97706" fill-opacity="0.55"/>
<circle cx="923.46" cy="317.51" r="3.3" fill="#D97706" fill-opacity="0.55"/>
<circle cx="922.73" cy="359.20" r="3.3" fill="#D97706" fill-opacity="0.55"/>
<circle cx="928.94" cy="303.44" r="3.3" fill="#D97706" fill-opacity="0.55"/>
<path d="M 922.73 301.37 L 922.73 319.72 L 923.10 327.49 L 925.29 315.23 L 931.14 308.38" fill="none" stroke="#DC2626" stroke-width="2.3"/>
<circle cx="922.73" cy="301.37" r="4" fill="#DC2626"/>
<circle cx="922.73" cy="319.72" r="4" fill="#DC2626"/>
<circle cx="923.10" cy="327.49" r="4" fill="#DC2626"/>
<circle cx="925.29" cy="315.23" r="4" fill="#DC2626"/>
<circle cx="931.14" cy="308.38" r="4" fill="#DC2626"/>
<text x="922" y="59" class="label" font-weight="700">Total complex length</text>
<text x="922" y="79" class="small">Spearman ρ=0.112; permutation p=0.35</text>
<text x="922" y="95" class="small">bootstrap 95% CI [-0.130, 0.344]</text>
<text x="1087.0" y="425" text-anchor="middle" class="label">10-NN distance / trainval IQR</text>
</svg>